#!OML:ASF H:\Terrain\Patient Classification 1\Takeo\Monday\TakeoMonday.ASF
:FULLY-SPECIFIED
:DEGREES
775
root 3.53965 14.4225 2.49881 -181.188 74.1323 -191.837
lowerback 27.661 -3.22552 0.935238
upperback 13.5014 -2.30386 -3.61088
thorax -0.372837 -0.261427 -3.86226
lowerneck -4.05591 -16.5873 -11.3245
upperneck -4.43101 -21.8702 15.6265
head 2.30292 -10.8131 5.16741
rclavicle 5.12864e-014 7.15625e-015
rhumerus 0.890501 -46.8851 -41.8535
rradius 18.3749
rwrist 9.40019
rhand -44.0152 43.0063
rfingers 7.12502
rthumb -16.8358 13.7162
lclavicle 5.12864e-014 7.15625e-015
lhumerus -2.13658 -1.97647 85.5881
lradius 83.6318
lwrist 33.5176
lhand -39.5825 20.3237
lfingers 7.12502
lthumb -12.5653 49.9258
rfemur -58.1011 -17.0153 16.2475
rtibia 84.7722
rfoot -32.6893 -9.14169
rtoes -6.09039
lfemur -56.9415 23.1306 -20.1521
ltibia 79.4722
lfoot -24.4333 5.62263
ltoes -15.725
776
root 3.56142 14.4447 2.54461 -180.486 74.663 -191.206
lowerback 27.477 -3.08902 0.88587
upperback 13.4418 -2.17138 -3.65056
thorax -0.345297 -0.208104 -3.91479
lowerneck -4.05935 -16.5877 -11.2286
upperneck -4.55516 -21.8608 15.604
head 2.25241 -10.811 5.15699
rclavicle 3.22031e-014 2.74323e-014
rhumerus -1.89422 -47.7348 -38.9098
rradius 18.9838
rwrist 8.19798
rhand -43.7088 45.6307
rfingers 7.12502
rthumb -16.5408 16.3157
lclavicle 3.22031e-014 2.74323e-014
lhumerus -2.66107 -2.21735 85.1351
lradius 84.0226
lwrist 33.5831
lhand -39.3786 20.529
lfingers 7.12502
lthumb -12.3687 50.1431
rfemur -58.0618 -16.5511 16.8162
rtibia 84.4486
rfoot -32.6187 -9.15507
rtoes -5.94977
lfemur -56.7518 23.7403 -19.5778
ltibia 79.1891
lfoot -24.4978 4.8443
ltoes -12.1687
777
root 3.58206 14.4749 2.56876 -181.165 74.9018 -191.657
lowerback 27.6714 -3.13627 0.975565
upperback 13.4288 -2.21344 -3.85828
thorax -0.46207 -0.214738 -4.18257
lowerneck -4.30367 -16.5881 -11.371
upperneck -4.17463 -21.8749 15.7147
head 2.43477 -10.7982 5.16235
rclavicle -1.23246e-014 5.1684e-015
rhumerus -5.32205 -47.3082 -35.3945
rradius 19.7645
rwrist 5.71495
rhand -42.9248 48.6253
rfingers 7.12502
rthumb -15.7859 19.249
lclavicle -1.23246e-014 5.1684e-015
lhumerus -3.1783 -2.54265 84.6772
lradius 84.2642
lwrist 33.6963
lhand -43.3064 21.0495
lfingers 7.12502
lthumb -16.1534 50.3964
rfemur -57.567 -16.6355 16.8477
rtibia 84.0412
rfoot -32.4578 -8.89344
rtoes -5.96012
lfemur -56.0809 23.6608 -19.2871
ltibia 78.8592
lfoot -24.8877 4.62754
ltoes -9.72179
778
root 3.60503 14.5034 2.59636 -182.235 75.1063 -192.52
lowerback 27.7506 -3.24555 0.763531
upperback 13.4451 -2.4036 -4.09286
thorax -0.495024 -0.306596 -4.26641
lowerneck -4.73264 -16.4904 -11.1978
upperneck -3.58747 -21.7497 15.2861
head 2.58815 -10.7101 4.97847
rclavicle 3.10104e-014 -1.07344e-014
rhumerus -8.00898 -47.1408 -32.535
rradius 20.3055
rwrist 3.89943
rhand -43.5221 44.6807
rfingers 7.12502
rthumb -16.3611 15.3508
lclavicle 3.10104e-014 -1.07344e-014
lhumerus -3.41054 -2.39027 84.3154
lradius 84.1731
lwrist 33.864
lhand -33.6624 22.7308
lfingers 7.12502
lthumb -6.85365 52.5999
rfemur -57.0874 -16.6059 16.7079
rtibia 83.6798
rfoot -32.4611 -8.53968
rtoes -5.53548
lfemur -55.3917 23.564 -19.1683
ltibia 78.4883
lfoot -25.0763 4.78753
ltoes -8.4447
779
root 3.6268 14.5297 2.62927 -181.855 75.291 -191.965
lowerback 27.7096 -3.36436 0.775801
upperback 13.4849 -2.55239 -4.18125
thorax -0.447434 -0.375132 -4.33046
lowerneck -4.95207 -16.3254 -10.6039
upperneck -3.58759 -21.506 14.646
head 2.45097 -10.5896 4.74774
rclavicle -1.90833e-014 9.54166e-015
rhumerus -10.4198 -47.8808 -29.8126
rradius 20.5113
rwrist 3.41541
rhand -44.4625 39.5857
rfingers 7.12502
rthumb -17.2664 10.3327
lclavicle -1.90833e-014 9.54166e-015
lhumerus -3.54201 -2.22925 83.9759
lradius 84.0529
lwrist 33.7896
lhand -32.2746 22.4334
lfingers 7.12502
lthumb -5.51388 52.3416
rfemur -56.6102 -16.2827 16.8243
rtibia 83.3977
rfoot -32.9561 -7.40041
rtoes -1.92428
lfemur -54.8671 23.5035 -18.6636
ltibia 78.1299
lfoot -24.934 4.52671
ltoes -6.06887
780
root 3.6473 14.5608 2.66134 -180.864 75.4379 -190.89
lowerback 27.6417 -3.54696 0.920577
upperback 13.4863 -2.76097 -4.20793
thorax -0.440522 -0.475144 -4.38592
lowerneck -4.8451 -16.0711 -10.622
upperneck -3.96418 -21.1323 14.6783
head 2.2854 -10.4126 4.82831
rclavicle -3.89618e-014 1.78906e-014
rhumerus -12.7269 -49.2619 -27.0792
rradius 20.6597
rwrist 3.71957
rhand -44.3083 38.3594
rfingers 7.12502
rthumb -17.118 9.09353
lclavicle -3.89618e-014 1.78906e-014
lhumerus -3.70016 -2.07352 83.6033
lradius 84.0476
lwrist 33.9052
lhand -34.2113 22.3828
lfingers 7.12502
lthumb -7.38352 52.2339
rfemur -56.2685 -15.9594 17.0004
rtibia 83.2717
rfoot -33.4175 -5.32028
rtoes 5.52247
lfemur -54.5821 23.5904 -18.1504
ltibia 77.8071
lfoot -24.7532 4.76417
ltoes -6.43518
781
root 3.66829 14.5983 2.68865 -180.768 75.5251 -190.719
lowerback 27.6114 -3.80337 0.814526
upperback 13.4989 -3.1172 -4.23151
thorax -0.438829 -0.658626 -4.25239
lowerneck -5.00946 -15.9266 -11.5941
upperneck -3.81008 -20.9059 15.2418
head 2.49826 -10.2726 5.10427
rclavicle 2.38542e-014 3.1408e-014
rhumerus -14.6953 -49.682 -24.5987
rradius 21.2146
rwrist 2.53145
rhand -44.0401 38.1438
rfingers 7.12502
rthumb -16.8598 8.85572
lclavicle 2.38542e-014 3.1408e-014
lhumerus -3.97243 -1.50651 83.4356
lradius 84.1905
lwrist 34.2296
lhand -30.9366 22.7637
lfingers 7.12502
lthumb -4.2219 52.7016
rfemur -56.107 -15.9506 17.0976
rtibia 83.261
rfoot -33.4271 -4.17016
rtoes 9.77978
lfemur -54.2421 23.7235 -17.9569
ltibia 77.4994
lfoot -24.6186 5.44472
ltoes -9.37133
782
root 3.69021 14.6267 2.72194 -180.725 75.658 -190.547
lowerback 27.7054 -3.94899 0.631678
upperback 13.4736 -3.35188 -4.23412
thorax -0.519718 -0.78721 -4.08267
lowerneck -5.52541 -16.2047 -12.3316
upperneck -3.09781 -21.2733 15.5032
head 2.94391 -10.408 5.14552
rclavicle -6.2816e-014 2.14687e-014
rhumerus -16.9757 -49.0098 -22.025
rradius 21.8917
rwrist 0.362652
rhand -44.4051 38.1723
rfingers 7.12502
rthumb -17.2111 8.91453
lclavicle -6.2816e-014 2.14687e-014
lhumerus -4.47479 -0.989678 83.363
lradius 84.4111
lwrist 34.2909
lhand -39.517 21.3245
lfingers 7.12502
lthumb -12.5021 50.9305
rfemur -55.8905 -15.9794 17.4097
rtibia 83.104
rfoot -33.2381 -4.29591
rtoes 9.09454
lfemur -53.779 23.7749 -17.6381
ltibia 77.1956
lfoot -24.5974 5.72182
ltoes -10.8868
783
root 3.71376 14.6416 2.76523 -180.385 75.7604 -190.135
lowerback 27.7935 -3.98588 0.447823
upperback 13.3762 -3.46133 -4.21487
thorax -0.666966 -0.859771 -3.92172
lowerneck -5.40017 -15.914 -10.8118
upperneck -3.5391 -20.8725 14.1603
head 2.42401 -10.2498 4.67673
rclavicle -1.74931e-014 -4.45278e-014
rhumerus -19.6708 -48.4005 -19.2121
rradius 22.3829
rwrist -1.04455
rhand -45.0694 37.5422
rfingers 7.12502
rthumb -17.8504 8.3414
lclavicle -1.74931e-014 -4.45278e-014
lhumerus -4.97108 -0.889907 83.1614
lradius 84.4396
lwrist 34.125
lhand -35.5939 21.2939
lfingers 7.12502
lthumb -8.71797 51.0939
rfemur -55.6607 -16.0469 17.9836
rtibia 82.7387
rfoot -33.0104 -5.43766
rtoes 4.69174
lfemur -53.43 23.688 -17.1691
ltibia 76.8523
lfoot -24.6129 5.40066
ltoes -10.3529
784
root 3.74066 14.6515 2.81317 -181.213 75.7741 -191.028
lowerback 27.6086 -3.99942 -0.0881595
upperback 13.3434 -3.61603 -4.25032
thorax -0.599152 -0.964532 -3.61435
lowerneck -5.3464 -15.7142 -9.90817
upperneck -3.87625 -20.5922 13.2918
head 2.09007 -10.133 4.38469
rclavicle 3.81667e-014 3.97569e-015
rhumerus -22.1935 -48.1069 -16.481
rradius 22.7514
rwrist -1.8516
rhand -45.6621 36.9618
rfingers 7.12502
rthumb -18.4207 7.81399
lclavicle 3.81667e-014 3.97569e-015
lhumerus -5.24555 -0.711946 82.9417
lradius 84.408
lwrist 34.0142
lhand -33.8373 21.6046
lfingers 7.12502
lthumb -7.02249 51.4682
rfemur -55.6543 -16.1558 18.2959
rtibia 82.4265
rfoot -32.6674 -7.25309
rtoes -0.967677
lfemur -53.1838 23.5866 -17.1265
ltibia 76.4235
lfoot -24.3958 4.73243
ltoes -8.13503
785
root 3.76754 14.6737 2.85041 -183.33 75.8133 -193.065
lowerback 27.47 -4.02506 -0.554432
upperback 13.4095 -3.74848 -4.54321
thorax -0.455957 -1.03294 -3.63831
lowerneck -5.06934 -15.4853 -10.4851
upperneck -3.87933 -20.3034 14.0658
head 2.16423 -9.9906 4.71677
rclavicle -1.98785e-014 -1.66979e-014
rhumerus -25.0231 -47.363 -13.8121
rradius 23.2536
rwrist -3.22619
rhand -46.2358 36.7824
rfingers 7.12502
rthumb -18.9725 7.68775
lclavicle -1.98785e-014 -1.66979e-014
lhumerus -5.38632 -0.70962 82.5984
lradius 84.4424
lwrist 34.1919
lhand -33.9381 21.743
lfingers 7.12502
lthumb -7.11979 51.6032
rfemur -55.5184 -16.327 18.1862
rtibia 82.1457
rfoot -31.7682 -9.51368
rtoes -8.42783
lfemur -52.5985 23.6004 -17.3987
ltibia 75.9606
lfoot -24.1552 4.4053
ltoes -5.80569
786
root 3.79078 14.7133 2.87474 -184.103 75.8761 -193.597
lowerback 27.5238 -4.13175 -0.246099
upperback 13.4671 -3.80734 -4.94311
thorax -0.465518 -1.02283 -4.2384
lowerneck -4.91245 -15.4527 -10.5797
upperneck -3.68428 -20.3123 14.6629
head 2.27973 -9.99716 4.89312
rclavicle 2.78299e-014 2.70347e-014
rhumerus -28.3603 -46.4356 -11.0363
rradius 23.8102
rwrist -4.79839
rhand -46.859 36.4018
rfingers 7.12502
rthumb -19.5718 7.36698
lclavicle 2.78299e-014 2.70347e-014
lhumerus -5.50516 -1.28833 82.0262
lradius 84.5234
lwrist 34.4873
lhand -35.1504 21.3736
lfingers 7.12502
lthumb -8.28994 51.191
rfemur -54.7682 -16.1853 17.6262
rtibia 82.1142
rfoot -32.6911 -6.20393
rtoes 0.756788
lfemur -51.8417 23.6528 -17.2314
ltibia 75.527
lfoot -24.0427 4.66503
ltoes -6.15506
787
root 3.80863 14.7351 2.91113 -181.743 75.9572 -191.246
lowerback 27.4565 -4.3378 0.235327
upperback 13.3972 -3.9838 -4.84508
thorax -0.555241 -1.10531 -4.3563
lowerneck -5.50124 -15.4597 -10.2473
upperneck -3.20173 -20.3037 13.9639
head 2.39857 -9.96743 4.59514
rclavicle 6.20208e-014 3.97569e-015
rhumerus -30.4947 -46.0936 -8.67062
rradius 24.2357
rwrist -5.85941
rhand -46.8332 35.3693
rfingers 7.12502
rthumb -19.5469 6.33191
lclavicle 6.20208e-014 3.97569e-015
lhumerus -5.78138 -1.12422 81.7225
lradius 84.6587
lwrist 34.5589
lhand -35.3295 21.5844
lfingers 7.12502
lthumb -8.46279 51.3948
rfemur -54.5943 -15.9062 18.3087
rtibia 81.9261
rfoot -32.9903 -5.47705
rtoes 3.24296
lfemur -51.7664 23.7978 -16.4058
ltibia 75.2461
lfoot -23.7069 4.87592
ltoes -7.81956
788
root 3.82777 14.7459 2.95661 -179.266 75.9905 -188.845
lowerback 27.3129 -4.6058 0.259177
upperback 13.335 -4.34172 -4.52452
thorax -0.567732 -1.31055 -3.91957
lowerneck -5.8628 -15.2372 -10.7676
upperneck -3.08121 -19.9338 13.7608
head 2.47595 -9.75948 4.61234
rclavicle 1.27222e-014 6.36111e-015
rhumerus -31.4388 -46.1051 -6.9245
rradius 24.602
rwrist -6.71132
rhand -46.7566 33.9665
rfingers 7.12502
rthumb -19.4733 4.92167
lclavicle 1.27222e-014 6.36111e-015
lhumerus -6.13173 0.102917 81.7829
lradius 84.7038
lwrist 34.2246
lhand -34.2183 22.1137
lfingers 7.12502
lthumb -7.39026 51.9646
rfemur -54.6602 -15.655 19.316
rtibia 81.6774
rfoot -32.8702 -6.35149
rtoes 1.99091
lfemur -51.8793 23.9528 -15.618
ltibia 75.0296
lfoot -23.3144 5.07656
ltoes -9.5728
789
root 3.85232 14.7573 2.99788 -178.541 76.0814 -188.038
lowerback 27.1898 -4.82033 0.113236
upperback 13.371 -4.65158 -4.51839
thorax -0.481219 -1.47407 -3.74918
lowerneck -5.66982 -14.9702 -11.4384
upperneck -3.25985 -19.5565 14.363
head 2.4833 -9.56927 4.92753
rclavicle 5.56597e-015 7.15625e-015
rhumerus -32.8734 -46.1351 -5.07008
rradius 24.8273
rwrist -6.98596
rhand -47.374 32.6092
rfingers 7.12502
rthumb -20.0668 3.62542
lclavicle 5.56597e-015 7.15625e-015
lhumerus -6.38357 1.03643 81.6285
lradius 84.7433
lwrist 34.0664
lhand -35.0322 22.3119
lfingers 7.12502
lthumb -8.17582 52.1337
rfemur -54.5501 -15.6497 20.1028
rtibia 81.265
rfoot -32.1761 -8.95175
rtoes -5.41439
lfemur -51.615 24.1402 -15.1806
ltibia 74.8003
lfoot -23.0406 5.39477
ltoes -11.1322
